SPRiNTER proudly presents

Battleground.2012.DVDRip.XviD-SPRiNTER

Date: 2011.12
 
http://www.imdb.com/title/tt1754506/

Six ruthless bank robbers encounter someone far worse. Six bank robbers become stranded in a off the grid forest when their vehicle goes missing during the planning of their escape from the police

Details

Format: AVI
Format/Info: Audio Video Interleave
File size: 701 MiB
Duration: 1h 25mn
Overall bit rate mode: Variable
Overall bit rate: 1 147 Kbps
Writing application: VirtualDubMod 1.5.10.2 (build 2540/release)
Writing library: VirtualDubMod build 2540/release

Video
ID: 0
Format: MPEG-4 Visual
Format profile: Advanced Simple@L5
Format settings, BVOP: 2
Format settings, QPel: No
Format settings, GMC: No warppoints
Format settings, Matrix: Default (H.263)
Codec ID: XVID
Codec ID/Hint: XviD
Duration: 1h 25mn
Bit rate: 995 Kbps
Width: 608 pixels
Height: 256 pixels
Display aspect ratio: 2.40:1
Frame rate: 25.000 fps
Color space: YUV
Chroma subsampling: 4:2:0
Bit depth: 8 bits
Scan type: Progressive
Compression mode: Lossy
Bits/(Pixel*Frame): 0.256
Stream size: 608 MiB (87%)
Writing library: XviD 61

Audio
ID: 1
Format: MPEG Audio
Format version: Version 1
Format profile: Layer 3
Mode: Joint stereo
Codec ID: 55
Codec ID/Hint: MP3
Duration: 1h 25mn
Bit rate mode: Variable
Bit rate: 140 Kbps
Minimum bit rate: 128 Kbps
Channel(s): 2 channels
Sampling rate: 48.0 KHz
Compression mode: Lossy
Stream size: 85.3 MiB (12%)
Alignment: Aligned on interleaves
Interleave, duration: 24 ms (0.60 video frame)
Interleave, preload duration: 461 ms
Writing library: LAME3.95
Encoding settings: -m j -V 4 -q 3 -lowpass 18 --vbr-old -b 128

